<svg id="Capa_1" enable-background="new 0 0 512 512" height="512" viewBox="0 0 512 512" width="512" xmlns="http://www.w3.org/2000/svg"><g><g><path d="m236.486 203.584-29.17-38.385c-4.653-6.123-7.181-13.673-7.181-21.447v-90.517h-123.065v90.517c0 7.774-2.528 15.324-7.181 21.447l-29.17 38.384c-12.279 16.157-18.959 36.074-18.979 56.586l-.235 202.167c-.022 21.587 16.974 39.099 37.946 39.099h158.303c20.972 0 37.968-17.512 37.946-39.099l-.235-202.167c-.021-20.512-6.701-40.429-18.979-56.585z" fill="#ffa585"/><path d="m255.464 260.169c-.021-20.512-6.701-40.429-18.979-56.585l-29.17-38.384c-4.653-6.123-7.181-13.673-7.181-21.447v-58.55h-55.71v69.251c0 6.111 1.74 12.047 4.942 16.861l20.072 30.176c8.449 12.702 13.045 28.36 13.06 44.486l.162 158.938c.015 16.972-11.68 30.739-26.111 30.739h-108.933c-13.837 0-25.152-12.66-26.047-28.662l-.064 55.344c-.022 21.587 16.974 39.099 37.946 39.099h158.303c20.972 0 37.967-17.512 37.946-39.099z" fill="#ef7c85"/><path d="m187.2 107.163h-97.196c-15.197 0-27.516-12.319-27.516-27.516v-24.204c0-15.197 12.319-27.516 27.516-27.516h97.197c15.197 0 27.516 12.319 27.516 27.516v24.204c0 15.197-12.32 27.516-27.517 27.516z" fill="#ffe266"/><path d="m363.756 100.446c0 20.597-16.698 37.295-37.295 37.295-20.598 0-37.295-16.698-37.295-37.295s16.698-71.603 37.295-71.603c20.598 0 37.295 51.005 37.295 71.603z" fill="#ffc7b6"/><path d="m438.347 229.254c0 20.598-16.698 37.295-37.295 37.295-20.598 0-37.295-16.698-37.295-37.295s16.698-71.603 37.295-71.603 37.295 51.005 37.295 71.603z" fill="#ffc7b6"/><path d="m311.871 323.062h-201.381c-14.23 0-25.765 11.535-25.765 25.765 0 14.23 11.536 25.766 25.765 25.766h220.657c14.792 17.091 36.789 27.943 61.371 27.943 38.659 0 70.964-26.806 78.821-62.586 1.904-8.669-4.669-16.888-13.545-16.888z" fill="#8bb6ef"/><path d="m457.793 323.062h-46.578c7.768 0 13.52 7.14 11.854 14.672-6.876 31.084-37.775 43.417-71.607 43.417-4.888 0-9.522.077-13.919.025 14.403 13.243 33.72 21.36 54.974 21.36 38.659 0 70.964-26.806 78.821-62.586 1.904-8.669-4.669-16.888-13.545-16.888z" fill="#8388ef"/></g><g><g fill="#440a29"><path d="m326.462 148.305c26.39 0 47.86-21.47 47.86-47.86 0-12.331-4.861-31.98-11.82-47.783-9.906-22.495-22.368-34.385-36.04-34.385-13.673 0-26.135 11.89-36.041 34.385-6.959 15.802-11.82 35.452-11.82 47.783 0 26.391 21.47 47.86 47.861 47.86zm-16.703-87.128c6.984-15.859 13.951-21.77 16.703-21.77 2.751 0 9.718 5.911 16.702 21.77 6.513 14.791 10.028 31.271 10.028 39.268 0 14.739-11.991 26.729-26.729 26.729-14.74 0-26.731-11.991-26.731-26.729-.001-7.996 3.513-24.476 10.027-39.268z"/><path d="m353.191 229.253c0 26.39 21.471 47.861 47.861 47.861s47.86-21.471 47.86-47.861c0-12.33-4.861-31.98-11.82-47.783-9.906-22.494-22.368-34.384-36.04-34.384-13.673 0-26.135 11.89-36.041 34.384-6.959 15.803-11.82 35.453-11.82 47.783zm31.158-39.267c6.984-15.859 13.951-21.77 16.703-21.77 2.751 0 9.718 5.91 16.702 21.77 6.513 14.79 10.028 31.27 10.028 39.267 0 14.74-11.991 26.731-26.729 26.731-14.74 0-26.731-11.991-26.731-26.731-.001-7.997 3.513-24.477 10.027-39.267z"/><path d="m476.824 321.615c-4.659-5.794-11.597-9.118-19.032-9.118h-191.701l-.061-52.339c-.023-22.704-7.528-45.066-21.132-62.968l-29.17-38.384c-3.242-4.266-5.028-9.613-5.028-15.054v-34.172c8.87-6.979 14.582-17.798 14.582-29.933v-24.204c0-20.998-17.083-38.082-38.081-38.082h-97.197c-20.998 0-38.081 17.084-38.081 38.082v24.204c0 12.135 5.713 22.955 14.582 29.933v34.172c0 5.442-1.786 10.788-5.028 15.054l-29.17 38.384c-13.604 17.902-21.109 40.264-21.132 62.966l-.235 202.169c-.013 13.479 5.166 26.094 14.584 35.521 9.118 9.127 21.166 14.154 33.927 14.154h158.303c12.76 0 24.81-5.027 33.927-14.153 9.418-9.427 14.597-22.042 14.584-35.523l-.09-77.166h60.32c17.194 17.816 40.983 27.943 66.023 27.943 20.933 0 41.383-7.177 57.583-20.209 16-12.87 27.207-30.868 31.557-50.676 1.598-7.286-.163-14.794-4.834-20.601zm-403.771-266.172c0-9.348 7.604-16.952 16.951-16.952h97.197c9.347 0 16.951 7.604 16.951 16.952v24.204c0 9.348-7.604 16.952-16.952 16.952h-97.196c-9.347 0-16.951-7.604-16.951-16.952zm172.081 406.903c.008 7.831-2.977 15.135-8.403 20.567-5.126 5.131-11.866 7.957-18.978 7.957h-158.302c-7.112 0-13.852-2.826-18.978-7.957-5.426-5.432-8.41-12.736-8.403-20.565l.235-202.169c.018-18.121 5.993-35.95 16.825-50.203l29.17-38.384c6.02-7.922 9.335-17.809 9.335-27.84v-26.105c.784.049 1.573.081 2.369.081h97.196c.796 0 1.585-.033 2.369-.081v26.105c0 10.032 3.315 19.918 9.334 27.84l29.17 38.384c10.832 14.254 16.807 32.082 16.826 50.205l.061 52.316h-134.47c-20.032 0-36.33 16.298-36.33 36.33 0 20.033 16.298 36.331 36.33 36.331h134.555zm215.884-124.662c-6.906 31.456-35.716 54.286-68.501 54.286-20.565 0-40.022-8.853-53.382-24.292-2.007-2.318-4.923-3.651-7.989-3.651h-220.656c-8.381 0-15.2-6.819-15.2-15.201 0-8.381 6.819-15.2 15.2-15.2h347.303c1.372 0 2.197.771 2.566 1.23.375.467.96 1.456.659 2.828z"/><path d="m202.304 432.142c3.501 0 6.339-2.838 6.339-6.339v-11.679c0-3.501-2.838-6.339-6.339-6.339s-6.339 2.838-6.339 6.339v11.679c0 3.5 2.838 6.339 6.339 6.339z"/><path d="m171.851 462.028c3.501 0 6.339-2.838 6.339-6.339v-11.679c0-3.501-2.838-6.339-6.339-6.339s-6.339 2.838-6.339 6.339v11.679c0 3.501 2.838 6.339 6.339 6.339z"/><path d="m146.896 430.028c3.501 0 6.339-2.838 6.339-6.339v-11.68c0-3.501-2.838-6.339-6.339-6.339s-6.339 2.838-6.339 6.339v11.68c0 3.5 2.839 6.339 6.339 6.339z"/><path d="m197.228 283.131c3.501 0 6.339-2.838 6.339-6.339v-11.679c0-3.501-2.838-6.339-6.339-6.339s-6.339 2.838-6.339 6.339v11.679c0 3.501 2.839 6.339 6.339 6.339z"/></g><path d="m74.909 287.9c-5.834 0-10.564-4.728-10.565-10.563-.003-12.39.391-26.754 5.126-40.428 1.91-5.515 7.927-8.437 13.44-6.527 5.514 1.909 8.436 7.926 6.527 13.439-3.661 10.574-3.965 22.353-3.963 33.511.001 5.835-4.728 10.566-10.563 10.567 0 .001-.001.001-.002.001z" fill="#fff"/><path d="m94.625 222.293c-1.815 0-3.653-.468-5.332-1.452-5.035-2.95-6.724-9.423-3.774-14.457l4.218-7.2c2.951-5.036 9.423-6.722 14.457-3.774 5.034 2.95 6.724 9.423 3.774 14.457l-4.218 7.2c-1.966 3.357-5.498 5.226-9.125 5.226z" fill="#fff"/><path d="m144.525 63.795h-25.309c-5.835 0-10.565-4.731-10.565-10.565 0-5.835 4.73-10.565 10.565-10.565h25.309c5.835 0 10.565 4.73 10.565 10.565 0 5.834-4.73 10.565-10.565 10.565z" fill="#fff"/><path d="m93.162 63.795h-4.956c-5.835 0-10.565-4.731-10.565-10.565 0-5.835 4.73-10.565 10.565-10.565h4.956c5.835 0 10.565 4.73 10.565 10.565.001 5.834-4.729 10.565-10.565 10.565z" fill="#fff"/></g><g><path d="m442.532 2.586 8.679 24.403c.372 1.045 1.107 1.873 2.035 2.291l21.681 9.768c3.063 1.38 3.063 6.26 0 7.64l-21.681 9.768c-.928.418-1.664 1.246-2.035 2.291l-8.679 24.403c-1.226 3.448-5.562 3.448-6.788 0l-8.679-24.403c-.372-1.045-1.107-1.873-2.036-2.291l-21.681-9.768c-3.063-1.38-3.063-6.26 0-7.64l21.681-9.768c.928-.418 1.664-1.246 2.036-2.291l8.679-24.403c1.226-3.448 5.562-3.448 6.788 0z" fill="#ffc7b6"/><g fill="#ffa585"><ellipse cx="305.077" cy="197.77" rx="18.95" ry="18.95" transform="matrix(.924 -.383 .383 .924 -52.461 131.803)"/><ellipse cx="492.886" cy="119.988" rx="8.175" ry="8.175" transform="matrix(.924 -.383 .383 .924 -8.399 197.753)"/></g></g></g></svg>